<svg xmlns="http://www.w3.org/2000/svg" viewBox="0 0 294.43 88.21"><defs><style>.cls-1{fill:#fff;}.cls-2{fill:#3df26b;}.cls-3{fill:#ff98bd;}</style></defs><title>Logotipo Horizontal Colorido Negativo</title><g id="Camada_2" data-name="Camada 2"><g id="Camada_1-2" data-name="Camada 1"><path class="cls-1" d="M135.06,19.13a1.06,1.06,0,0,1,.23-.47,2.68,2.68,0,0,1,1.1-.81,1.69,1.69,0,0,1,.61-.13h9.21a1.53,1.53,0,0,1,1,.38,4.73,4.73,0,0,1,.65.67l.9,2.05,18.9,48.74a1.06,1.06,0,0,1-.11,1.17,1.75,1.75,0,0,1-1.37.45H155.91a2.26,2.26,0,0,1-1.28-.31,2,2,0,0,1-.7-1q-.72-1.84-1.4-3.65l-1.37-3.65H132q-.68,1.84-1.39,3.65t-1.39,3.65a1.8,1.8,0,0,1-1.84,1.33H116.81a1.75,1.75,0,0,1-1.13-.36.85.85,0,0,1-.16-1.08Zm6.55,15.41q-.68,1.84-1.39,4t-1.39,4.28q-.69,2.16-1.39,4.27T136.07,51h11.05Z"/><path class="cls-1" d="M173.4,14.63a3.21,3.21,0,0,1,.58-1.94,2.29,2.29,0,0,1,2-.79h8.82a1.7,1.7,0,0,1,.76.2,2.7,2.7,0,0,1,.74.56,3.22,3.22,0,0,1,.58.86,2.62,2.62,0,0,1,.23,1.12V68.42a2.65,2.65,0,0,1-.77,2.07,2.86,2.86,0,0,1-2,.7H176a2.43,2.43,0,0,1-2-.7,3.2,3.2,0,0,1-.58-2.07Z"/><path class="cls-1" d="M238.17,70.58a2.22,2.22,0,0,1-1,.5,4.92,4.92,0,0,1-1,.11h-5.44a2.46,2.46,0,0,1-1.12-.23,2.39,2.39,0,0,1-.79-.63,3.68,3.68,0,0,1-.54-.9,7.51,7.51,0,0,1-.36-1l-.76-3.52a8.86,8.86,0,0,1-1.8,2.35,14.68,14.68,0,0,1-3.11,2.28A19.55,19.55,0,0,1,218,71.23a19.28,19.28,0,0,1-5.26.68,16.05,16.05,0,0,1-7.27-1.58A15.74,15.74,0,0,1,200.13,66a19.07,19.07,0,0,1-3.29-6.39,26.54,26.54,0,0,1-1.12-7.79V28.24a3.13,3.13,0,0,1,.59-2.07,2.34,2.34,0,0,1,1.89-.7h8.32a3.22,3.22,0,0,1,2.12.52,2.73,2.73,0,0,1,.58,2V51.49a7.37,7.37,0,0,0,.59,2.94,8.24,8.24,0,0,0,1.6,2.45,7.47,7.47,0,0,0,2.36,1.68,6.84,6.84,0,0,0,2.86.61,10.25,10.25,0,0,0,2.81-.43,9.19,9.19,0,0,0,2.81-1.35A7.7,7.7,0,0,0,224.41,55a6.61,6.61,0,0,0,.86-3.46V28.13a3.41,3.41,0,0,1,.23-1.23,1.94,1.94,0,0,1,.7-.94,3.3,3.3,0,0,1,.88-.4,3.78,3.78,0,0,1,1-.11h8.14a2.54,2.54,0,0,1,2.92,2.77V68.53a2.64,2.64,0,0,1-.31,1.26,2.27,2.27,0,0,1-.85.9Z"/><path class="cls-1" d="M280.86,69.6a6.43,6.43,0,0,0,.32-1.58q.07-.86.07-1.8v-.49a1.73,1.73,0,0,0,0-.27,1.6,1.6,0,0,1,0-.27v-.49q-1,1.12-2.12,2.2a14.34,14.34,0,0,1-2.39,1.93,12.25,12.25,0,0,1-3,1.37,12.81,12.81,0,0,1-3.85.52,24,24,0,0,1-9-1.66,21.47,21.47,0,0,1-7.16-4.63A20.93,20.93,0,0,1,249,57.33a23.84,23.84,0,0,1-1.69-9.11A25,25,0,0,1,249,39a23,23,0,0,1,4.72-7.49,21.9,21.9,0,0,1,7.16-5,22.14,22.14,0,0,1,9-1.82,15.36,15.36,0,0,1,4.07.5,14.28,14.28,0,0,1,3.37,1.39,14.87,14.87,0,0,1,2.79,2.07,26,26,0,0,1,2.34,2.52l1-3.2.4-1.12a2.72,2.72,0,0,1,.47-.85,1.84,1.84,0,0,1,.74-.52,3.2,3.2,0,0,1,1.17-.18h5.36a3,3,0,0,1,1,.18,3.27,3.27,0,0,1,.92.5,2.4,2.4,0,0,1,.67.83,2.54,2.54,0,0,1,.25,1.15V64.6a25.74,25.74,0,0,1-1.84,10,21,21,0,0,1-12.56,12,27.18,27.18,0,0,1-9.36,1.58,27.71,27.71,0,0,1-4.18-.34,31,31,0,0,1-4.45-1,26.62,26.62,0,0,1-4.28-1.75,17.56,17.56,0,0,1-3.65-2.47,3.63,3.63,0,0,1-.92-1,2.4,2.4,0,0,1-.38-1.31,3.43,3.43,0,0,1,.68-1.91l3.42-4.72a4.89,4.89,0,0,1,.94-.81,1.73,1.73,0,0,1,.94-.27,3.67,3.67,0,0,1,2,.86,7.2,7.2,0,0,0,2.07,1.39,14.33,14.33,0,0,0,2.41.83,14.88,14.88,0,0,0,2.45.4q1.21.09,2.18.09a14.21,14.21,0,0,0,3.38-.43,13.34,13.34,0,0,0,3.29-1.28,11.22,11.22,0,0,0,2.7-2.07A6.49,6.49,0,0,0,280.86,69.6ZM260.27,48.22A13.25,13.25,0,0,0,261,52.7a10.52,10.52,0,0,0,2.11,3.58,9.78,9.78,0,0,0,3.29,2.38,10.3,10.3,0,0,0,4.27.86,11.62,11.62,0,0,0,4.34-.81,11,11,0,0,0,3.55-2.25A11.28,11.28,0,0,0,281,53.08a11,11,0,0,0,1-4.21V47.68a11,11,0,0,0-1-4.16,11.93,11.93,0,0,0-2.43-3.46A11.52,11.52,0,0,0,275,37.69a10.79,10.79,0,0,0-4.34-.88,9.78,9.78,0,0,0-4.27.92,10.19,10.19,0,0,0-3.29,2.47A10.9,10.9,0,0,0,261,43.83,13.08,13.08,0,0,0,260.27,48.22Z"/><path class="cls-2" d="M34.87,34.13A48.51,48.51,0,0,1,48.84,0L97.22,80.85A48.7,48.7,0,0,1,34.87,34.13Z"/><path class="cls-3" d="M25.93,37.54,0,80.88a47.88,47.88,0,0,0,41.54-7.22A57.51,57.51,0,0,1,25.93,37.54Z"/></g></g></svg>